<?xml version="1.0" encoding="UTF-8"?>
<svg id="Layer_1" data-name="Layer 1" xmlns="http://www.w3.org/2000/svg" viewBox="0 0 622.35 700">
  <defs>
    <style>
      .cls-1 {
        fill: #2f4bff;
      }

      .cls-1, .cls-2 {
        stroke-width: 0px;
      }

      .cls-2 {
        fill: #050d42;
      }
    </style>
  </defs>
  <path class="cls-2" d="M309.85,700c-72.5,0-125-156.25-125-350S237.35,0,309.85,0s125,156.25,125,350-52.5,350-125,350ZM309.85,675c51.25,0,100-145,100-325S361.1,25,309.85,25s-100,145-100,325,48.75,325,100,325Z"/>
  <path class="cls-2" d="M7.35,525c-37.5-62.5,72.5-186.25,240-283.75,167.5-97.5,328.75-128.75,365-66.25s-72.5,186.25-240,283.75S43.6,587.5,7.35,525ZM28.6,512.5c26.25,45,176.25,13.75,331.25-76.25,155-90,257.5-203.75,231.25-248.75s-176.25-13.75-331.25,76.25C104.85,353.75,2.35,467.5,28.6,512.5Z"/>
  <path class="cls-2" d="M612.35,525c-36.25,62.5-198.75,30-365-66.25S-30.15,237.5,7.35,175s198.75-30,365,66.25,277.5,221.25,240,283.75ZM591.1,512.5c26.25-45-76.25-158.75-231.25-248.75S53.6,142.5,28.6,187.5s76.25,158.75,231.25,248.75c155,90,306.25,121.25,331.25,76.25Z"/>
  <path class="cls-1" d="M309.85,412.5c-35,0-62.5-27.5-62.5-62.5s27.5-62.5,62.5-62.5,62.5,27.5,62.5,62.5-27.5,62.5-62.5,62.5ZM122.35,193.75c-21.25,0-37.5-16.25-37.5-37.5s16.25-37.5,37.5-37.5,37.5,16.25,37.5,37.5-16.25,37.5-37.5,37.5ZM234.85,637.5c-21.25,0-37.5-16.25-37.5-37.5s16.25-37.5,37.5-37.5,37.5,16.25,37.5,37.5-16.25,37.5-37.5,37.5ZM584.85,300c-21.25,0-37.5-16.25-37.5-37.5s16.25-37.5,37.5-37.5,37.5,16.25,37.5,37.5-16.25,37.5-37.5,37.5Z"/>
</svg>